<?xml version="1.0" standalone="no"?>
<!DOCTYPE svg PUBLIC "-//W3C//DTD SVG 20010904//EN"
 "http://www.w3.org/TR/2001/REC-SVG-20010904/DTD/svg10.dtd">
<svg version="1.0" xmlns="http://www.w3.org/2000/svg"
 width="676.000000pt" height="246.000000pt" viewBox="0 0 676.000000 246.000000"
 preserveAspectRatio="xMidYMid meet">

<g transform="translate(0.000000,246.000000) scale(0.100000,-0.100000)"
fill="#000000" stroke="none">
<path d="M1655 2331 c-259 -70 -476 -129 -484 -132 -8 -3 -46 -61 -85 -130
l-72 -124 -150 -3 -150 -2 -354 -355 -355 -355 355 -355 354 -355 150 -2 150
-3 71 -122 c38 -67 73 -124 76 -127 6 -6 973 -265 976 -262 1 1 61 221 133
488 l131 485 -75 127 -75 126 75 126 75 127 -121 451 c-144 533 -142 526 -149
525 -3 -1 -217 -58 -476 -128z m125 -246 c0 -2 -95 -169 -212 -370 l-211 -365
-430 0 -429 0 140 148 c77 81 199 205 271 277 l131 129 357 92 c356 92 383 98
383 89z m325 -492 c52 -188 95 -351 95 -363 0 -20 -182 -684 -198 -723 -6 -14
-58 69 -217 344 -116 199 -210 370 -210 379 0 9 94 180 210 379 159 275 211
358 217 344 4 -10 50 -172 103 -360z m-536 -849 c117 -201 210 -368 208 -371
-3 -2 -168 37 -368 88 l-364 92 -133 131 c-73 72 -197 197 -274 279 l-140 147
429 0 430 0 212 -366z"/>
<path d="M4870 1955 l0 -105 120 0 120 0 0 105 0 105 -120 0 -120 0 0 -105z"/>
<path d="M5358 1888 l-3 -173 -82 -3 -83 -3 0 -89 0 -90 85 0 85 0 0 -400 0
-400 115 0 115 0 0 400 0 400 80 0 c58 0 80 4 80 13 0 7 -13 46 -29 87 l-28
75 -52 3 -51 3 0 175 0 174 -115 0 -115 0 -2 -172z"/>
<path d="M4264 1726 c-55 -18 -113 -59 -146 -103 l-28 -37 0 62 0 62 -110 0
-110 0 0 -490 0 -490 114 0 114 0 4 313 c4 349 8 368 75 428 47 41 76 51 154
51 96 1 144 -27 184 -107 l30 -60 3 -312 4 -313 114 0 114 0 0 328 c0 348 -7
418 -50 501 -32 64 -86 118 -148 148 -50 25 -70 28 -167 30 -71 2 -125 -2
-151 -11z"/>
<path d="M2860 1387 c0 -185 5 -348 11 -381 24 -131 84 -217 185 -267 56 -28
78 -33 164 -37 76 -4 111 -1 151 12 67 22 125 62 155 105 l24 36 0 -63 0 -62
110 0 110 0 0 490 0 490 -115 0 -115 0 0 -298 c0 -340 -5 -374 -67 -435 -42
-43 -84 -57 -167 -57 -124 0 -188 62 -206 201 -5 41 -10 190 -10 332 l0 257
-115 0 -115 0 0 -323z"/>
<path d="M4870 1220 l0 -490 120 0 120 0 0 490 0 490 -120 0 -120 0 0 -490z"/>
<path d="M5791 1683 c5 -16 89 -228 185 -473 l174 -445 -80 -189 c-44 -104
-80 -190 -80 -192 0 -2 56 -4 124 -4 l125 0 19 53 c11 28 126 324 256 656 130
332 236 607 236 612 0 6 -52 8 -122 7 l-123 -3 -115 -317 c-63 -175 -117 -318
-120 -318 -3 0 -45 109 -94 243 -49 133 -102 277 -118 320 l-30 77 -124 0
-124 0 11 -27z"/>
</g>
</svg>
